<svg width="94" height="25" viewBox="0 0 94 25" fill="none" xmlns="http://www.w3.org/2000/svg">
<path d="M22.4372 12.5169C22.4372 14.3421 22.1751 16.0172 21.6508 17.5421C21.1704 18.9926 20.4067 20.3331 19.404 21.486C18.4271 22.5908 17.2236 23.4723 15.8756 24.0702C14.5025 24.6888 12.9631 24.9981 11.2574 24.9981C9.49495 24.9981 7.91688 24.6888 6.52323 24.0702C5.16823 23.4801 3.96046 22.5976 2.98638 21.486C1.99233 20.3317 1.23809 18.991 0.76766 17.5421C0.255886 16.0178 0 14.3427 0 12.5169C0 10.6798 0.264936 8.99438 0.794809 7.46067C1.32468 5.92697 2.07362 4.60924 3.04162 3.50749C4.01792 2.40148 5.2232 1.52124 6.57379 0.927903C7.95245 0.309301 9.50057 0 11.2181 0C12.9656 0 14.5347 0.309301 15.9252 0.927903C17.2767 1.51999 18.4813 2.40227 19.4536 3.51217C20.4179 4.61704 21.1562 5.93477 21.6686 7.46536C22.181 8.99594 22.4372 10.6798 22.4372 12.5169ZM11.2827 12.5169C11.2827 10.8961 19.3076 9.46723 18.8826 8.23034C18.4575 6.99345 17.8724 5.96161 17.1263 5.13296C16.3973 4.31693 15.4954 3.67395 14.4863 3.25094C13.4509 2.82044 12.3394 2.60295 11.2181 2.61142C10.0969 2.60292 8.98536 2.82042 7.94996 3.25094C6.94084 3.67387 6.03889 4.31686 5.30996 5.13296C4.56102 5.9613 3.97529 6.99376 3.55277 8.23034C3.12774 9.46723 11.2818 10.8961 11.2818 12.5169C11.2818 14.1376 3.13243 15.5637 3.56306 16.7987C3.9937 18.0337 4.58255 19.059 5.32868 19.8886C6.05639 20.7037 6.95886 21.3439 7.96868 21.7612C9.01136 22.1872 10.1284 22.4014 11.2546 22.3914C12.3694 22.4016 13.4748 22.1873 14.505 21.7612C15.5074 21.3402 16.403 20.7004 17.1263 19.8886C17.8752 19.0602 18.4607 18.0303 18.8826 16.7987C19.3076 15.5637 11.2827 14.1386 11.2827 12.5169Z" fill="#F55757"/>
<path d="M26.372 14.1207V24.0992H23.4371V0.000842487H29.6786C30.5762 -0.00636702 31.4736 0.0326985 32.3673 0.117884C33.0508 0.186046 33.7276 0.30942 34.3913 0.486798C36.0689 0.943726 37.3517 1.72119 38.2399 2.81919C39.128 3.9172 39.5717 5.29048 39.5711 6.93904C39.5858 7.83164 39.4268 8.71856 39.103 9.55047C38.8052 10.2983 38.3594 10.9783 37.7924 11.5495C37.2055 12.1293 36.5193 12.599 35.7665 12.9362C34.9303 13.3115 34.0493 13.5777 33.1452 13.7284V13.8005L40.276 24.1001H37.3383L29.9192 14.1207H26.372ZM26.372 2.64785V11.4728H29.2742C30.1747 11.4728 30.943 11.4415 31.579 11.3791C32.1587 11.33 32.7319 11.2214 33.2894 11.0552C34.3098 10.743 35.0962 10.2437 35.6485 9.55702C36.2009 8.87038 36.477 7.97587 36.477 6.8735C36.4652 5.84104 36.2012 5.00958 35.685 4.37912C35.1689 3.74866 34.453 3.29766 33.5375 3.02612C33.0319 2.88019 32.5133 2.78361 31.989 2.73773C31.3886 2.67531 30.6263 2.6441 29.702 2.6441L26.372 2.64785Z" fill="#F55757"/>
<path d="M44.212 21.4504H58.2648V24.0983H41.2761V0H46.9081L48.8919 2.64794H44.211V10.4288H53.0354L54.6016 13.0712H44.2101L44.212 21.4504Z" fill="#F55757"/>
<path d="M69.7995 13.4354C71.0565 15.5577 72.2984 17.7425 73.5255 19.9897H73.6191C73.4861 17.6483 73.4197 15.2587 73.4197 12.8212V0H75.9286V24.0983H73.4328L65.3817 10.6629C63.9918 8.32147 62.7498 6.1367 61.6557 4.10861H61.5621C61.6944 6.30587 61.7609 8.86923 61.7615 11.7987V24.0983H59.2648V0H61.7484L69.7995 13.4354Z" fill="#F55757"/>
<path d="M87.4596 13.4663C88.7165 15.5961 89.9585 17.7862 91.1855 20.0365H91.2791C91.1462 17.6901 91.0797 15.2953 91.0797 12.8521V0H93.5924V24.1526H91.0938L83.0427 10.6863C81.6528 8.33989 80.4108 6.14981 79.3168 4.11611H79.2231C79.3555 6.31835 79.4219 8.88764 79.4225 11.824V24.1526H76.9286V0H79.4123L87.4596 13.4663Z" fill="#F55757"/>
</svg>
